<?xml version="1.0" encoding="UTF-8"?>
<svg xmlns="http://www.w3.org/2000/svg" width="1000" height="640" viewBox="0 0 1000 640" font-family="Tahoma, Arial, sans-serif">
<rect width="1000" height="640" fill="#fff"/><line x1="110" x2="960" y1="526.8181818181818" y2="526.8181818181818" stroke="#e6e9ed" stroke-width="1"/><line x1="110" x2="117" y1="526.8181818181818" y2="526.8181818181818" stroke="#222" stroke-width="1.5"/><text x="98" y="532.8181818181818" font-size="17" text-anchor="end" fill="#222">-400</text><line x1="110" x2="960" y1="468.8636363636364" y2="468.8636363636364" stroke="#e6e9ed" stroke-width="1"/><line x1="110" x2="117" y1="468.8636363636364" y2="468.8636363636364" stroke="#222" stroke-width="1.5"/><text x="98" y="474.8636363636364" font-size="17" text-anchor="end" fill="#222">-350</text><line x1="110" x2="960" y1="410.90909090909093" y2="410.90909090909093" stroke="#e6e9ed" stroke-width="1"/><line x1="110" x2="117" y1="410.90909090909093" y2="410.90909090909093" stroke="#222" stroke-width="1.5"/><text x="98" y="416.90909090909093" font-size="17" text-anchor="end" fill="#222">-300</text><line x1="110" x2="960" y1="352.95454545454544" y2="352.95454545454544" stroke="#e6e9ed" stroke-width="1"/><line x1="110" x2="117" y1="352.95454545454544" y2="352.95454545454544" stroke="#222" stroke-width="1.5"/><text x="98" y="358.95454545454544" font-size="17" text-anchor="end" fill="#222">-250</text><line x1="110" x2="960" y1="295" y2="295" stroke="#e6e9ed" stroke-width="1"/><line x1="110" x2="117" y1="295" y2="295" stroke="#222" stroke-width="1.5"/><text x="98" y="301" font-size="17" text-anchor="end" fill="#222">-200</text><line x1="110" x2="960" y1="237.04545454545453" y2="237.04545454545453" stroke="#e6e9ed" stroke-width="1"/><line x1="110" x2="117" y1="237.04545454545453" y2="237.04545454545453" stroke="#222" stroke-width="1.5"/><text x="98" y="243.04545454545453" font-size="17" text-anchor="end" fill="#222">-150</text><line x1="110" x2="960" y1="179.0909090909091" y2="179.0909090909091" stroke="#e6e9ed" stroke-width="1"/><line x1="110" x2="117" y1="179.0909090909091" y2="179.0909090909091" stroke="#222" stroke-width="1.5"/><text x="98" y="185.0909090909091" font-size="17" text-anchor="end" fill="#222">-100</text><line x1="110" x2="960" y1="121.13636363636364" y2="121.13636363636364" stroke="#e6e9ed" stroke-width="1"/><line x1="110" x2="117" y1="121.13636363636364" y2="121.13636363636364" stroke="#222" stroke-width="1.5"/><text x="98" y="127.13636363636364" font-size="17" text-anchor="end" fill="#222">-50</text><line x1="110" x2="960" y1="63.18181818181819" y2="63.18181818181819" stroke="#9aa3ad" stroke-width="1"/><line x1="110" x2="117" y1="63.18181818181819" y2="63.18181818181819" stroke="#222" stroke-width="1.5"/><text x="98" y="69.18181818181819" font-size="17" text-anchor="end" fill="#222">0</text><line x1="110" x2="110" y1="40" y2="550" stroke="#e6e9ed" stroke-width="1"/><line x1="110" x2="110" y1="550" y2="543" stroke="#222" stroke-width="1.5"/><text x="110" y="578" font-size="17" text-anchor="middle" fill="#222">20</text><line x1="216.25" x2="216.25" y1="40" y2="550" stroke="#e6e9ed" stroke-width="1"/><line x1="216.25" x2="216.25" y1="550" y2="543" stroke="#222" stroke-width="1.5"/><text x="216.25" y="578" font-size="17" text-anchor="middle" fill="#222">30</text><line x1="322.5" x2="322.5" y1="40" y2="550" stroke="#e6e9ed" stroke-width="1"/><line x1="322.5" x2="322.5" y1="550" y2="543" stroke="#222" stroke-width="1.5"/><text x="322.5" y="578" font-size="17" text-anchor="middle" fill="#222">40</text><line x1="428.75" x2="428.75" y1="40" y2="550" stroke="#e6e9ed" stroke-width="1"/><line x1="428.75" x2="428.75" y1="550" y2="543" stroke="#222" stroke-width="1.5"/><text x="428.75" y="578" font-size="17" text-anchor="middle" fill="#222">50</text><line x1="535" x2="535" y1="40" y2="550" stroke="#e6e9ed" stroke-width="1"/><line x1="535" x2="535" y1="550" y2="543" stroke="#222" stroke-width="1.5"/><text x="535" y="578" font-size="17" text-anchor="middle" fill="#222">60</text><line x1="641.25" x2="641.25" y1="40" y2="550" stroke="#e6e9ed" stroke-width="1"/><line x1="641.25" x2="641.25" y1="550" y2="543" stroke="#222" stroke-width="1.5"/><text x="641.25" y="578" font-size="17" text-anchor="middle" fill="#222">70</text><line x1="747.5" x2="747.5" y1="40" y2="550" stroke="#e6e9ed" stroke-width="1"/><line x1="747.5" x2="747.5" y1="550" y2="543" stroke="#222" stroke-width="1.5"/><text x="747.5" y="578" font-size="17" text-anchor="middle" fill="#222">80</text><line x1="853.75" x2="853.75" y1="40" y2="550" stroke="#e6e9ed" stroke-width="1"/><line x1="853.75" x2="853.75" y1="550" y2="543" stroke="#222" stroke-width="1.5"/><text x="853.75" y="578" font-size="17" text-anchor="middle" fill="#222">90</text><line x1="960" x2="960" y1="40" y2="550" stroke="#e6e9ed" stroke-width="1"/><line x1="960" x2="960" y1="550" y2="543" stroke="#222" stroke-width="1.5"/><text x="960" y="578" font-size="17" text-anchor="middle" fill="#222">100</text><rect x="110" y="40" width="850" height="510" fill="none" stroke="#222" stroke-width="1.8"/><text x="535" y="618" font-size="21" font-weight="bold" text-anchor="middle" fill="#111">رطوبت نسبی (%)</text><text transform="translate(34,295) rotate(-90)" font-size="21" font-weight="bold" text-anchor="middle" fill="#111">تغییر فرکانس (هرتز)</text><path d="M127.0,63.2 L355.4,118.8 L443.6,135.0 L695.4,201.1 L785.7,219.7 L892.0,244.0" fill="none" stroke="#1f6fb2" stroke-width="2.6" stroke-linejoin="round"/><path d="M892.0,244.0 L892.0,233.6 L785.7,213.9 L695.4,200.0 L443.6,132.7 L355.4,123.5 L127.0,63.2" fill="none" stroke="#1f6fb2" stroke-width="2.6" stroke-dasharray="8,6" stroke-linejoin="round"/><path d="M-6,-5 L6,0 L-6,5 Z" fill="#1f6fb2" transform="translate(241.2,91.0) rotate(13.7)"/><path d="M-6,-5 L6,0 L-6,5 Z" fill="#1f6fb2" transform="translate(399.5,126.9) rotate(10.4)"/><path d="M-6,-5 L6,0 L-6,5 Z" fill="#1f6fb2" transform="translate(569.5,168.1) rotate(14.7)"/><path d="M-6,-5 L6,0 L-6,5 Z" fill="#1f6fb2" transform="translate(740.6,210.4) rotate(11.6)"/><path d="M-6,-5 L6,0 L-6,5 Z" fill="#1f6fb2" transform="translate(838.9,231.8) rotate(12.9)"/><path d="M-6,-5 L6,0 L-6,5 Z" fill="#1f6fb2" transform="translate(838.9,223.7) rotate(-169.5)"/><path d="M-6,-5 L6,0 L-6,5 Z" fill="#1f6fb2" transform="translate(740.6,206.9) rotate(-171.2)"/><path d="M-6,-5 L6,0 L-6,5 Z" fill="#1f6fb2" transform="translate(569.5,166.3) rotate(-165.1)"/><path d="M-6,-5 L6,0 L-6,5 Z" fill="#1f6fb2" transform="translate(399.5,128.1) rotate(-174.0)"/><path d="M-6,-5 L6,0 L-6,5 Z" fill="#1f6fb2" transform="translate(241.2,93.3) rotate(-165.2)"/><circle cx="127.00000000000001" cy="63.18181818181819" r="6.5" fill="#1f6fb2" stroke="#1f6fb2" stroke-width="2"/><circle cx="355.4375" cy="118.81818181818181" r="6.5" fill="#1f6fb2" stroke="#1f6fb2" stroke-width="2"/><circle cx="443.62499999999994" cy="135.04545454545456" r="6.5" fill="#1f6fb2" stroke="#1f6fb2" stroke-width="2"/><circle cx="695.4375" cy="201.11363636363637" r="6.5" fill="#1f6fb2" stroke="#1f6fb2" stroke-width="2"/><circle cx="785.7499999999999" cy="219.6590909090909" r="6.5" fill="#1f6fb2" stroke="#1f6fb2" stroke-width="2"/><circle cx="891.9999999999999" cy="244" r="6.5" fill="#1f6fb2" stroke="#1f6fb2" stroke-width="2"/><circle cx="891.9999999999999" cy="233.5681818181818" r="6.5" fill="#fff" stroke="#1f6fb2" stroke-width="2"/><circle cx="785.7499999999999" cy="213.86363636363635" r="6.5" fill="#fff" stroke="#1f6fb2" stroke-width="2"/><circle cx="695.4375" cy="199.95454545454547" r="6.5" fill="#fff" stroke="#1f6fb2" stroke-width="2"/><circle cx="443.62499999999994" cy="132.72727272727275" r="6.5" fill="#fff" stroke="#1f6fb2" stroke-width="2"/><circle cx="355.4375" cy="123.45454545454545" r="6.5" fill="#fff" stroke="#1f6fb2" stroke-width="2"/><circle cx="127.00000000000001" cy="63.18181818181819" r="6.5" fill="#fff" stroke="#1f6fb2" stroke-width="2"/><path d="M127.0,63.2 L355.4,98.0 L443.6,106.1 L695.4,201.1 L785.7,343.7 L892.0,515.2" fill="none" stroke="#d1343f" stroke-width="2.6" stroke-linejoin="round"/><path d="M892.0,515.2 L892.0,502.5 L785.7,377.3 L695.4,228.9 L443.6,130.4 L355.4,113.0 L127.0,63.2" fill="none" stroke="#d1343f" stroke-width="2.6" stroke-dasharray="8,6" stroke-linejoin="round"/><path d="M-6,-5 L6,0 L-6,5 Z" fill="#d1343f" transform="translate(241.2,80.6) rotate(8.7)"/><path d="M-6,-5 L6,0 L-6,5 Z" fill="#d1343f" transform="translate(399.5,102.0) rotate(5.3)"/><path d="M-6,-5 L6,0 L-6,5 Z" fill="#d1343f" transform="translate(569.5,153.6) rotate(20.7)"/><path d="M-6,-5 L6,0 L-6,5 Z" fill="#d1343f" transform="translate(740.6,272.4) rotate(57.6)"/><path d="M-6,-5 L6,0 L-6,5 Z" fill="#d1343f" transform="translate(838.9,429.5) rotate(58.2)"/><path d="M-6,-5 L6,0 L-6,5 Z" fill="#d1343f" transform="translate(838.9,439.9) rotate(-130.3)"/><path d="M-6,-5 L6,0 L-6,5 Z" fill="#d1343f" transform="translate(740.6,303.1) rotate(-121.3)"/><path d="M-6,-5 L6,0 L-6,5 Z" fill="#d1343f" transform="translate(569.5,179.7) rotate(-158.6)"/><path d="M-6,-5 L6,0 L-6,5 Z" fill="#d1343f" transform="translate(399.5,121.7) rotate(-168.8)"/><path d="M-6,-5 L6,0 L-6,5 Z" fill="#d1343f" transform="translate(241.2,88.1) rotate(-167.7)"/><rect x="121.00000000000001" y="57.18181818181819" width="12" height="12" fill="#d1343f" stroke="#d1343f" stroke-width="2"/><rect x="349.4375" y="91.95454545454545" width="12" height="12" fill="#d1343f" stroke="#d1343f" stroke-width="2"/><rect x="437.62499999999994" y="100.06818181818181" width="12" height="12" fill="#d1343f" stroke="#d1343f" stroke-width="2"/><rect x="689.4375" y="195.11363636363637" width="12" height="12" fill="#d1343f" stroke="#d1343f" stroke-width="2"/><rect x="779.7499999999999" y="337.6818181818182" width="12" height="12" fill="#d1343f" stroke="#d1343f" stroke-width="2"/><rect x="885.9999999999999" y="509.22727272727275" width="12" height="12" fill="#d1343f" stroke="#d1343f" stroke-width="2"/><rect x="885.9999999999999" y="496.47727272727275" width="12" height="12" fill="#fff" stroke="#d1343f" stroke-width="2"/><rect x="779.7499999999999" y="371.29545454545456" width="12" height="12" fill="#fff" stroke="#d1343f" stroke-width="2"/><rect x="689.4375" y="222.9318181818182" width="12" height="12" fill="#fff" stroke="#d1343f" stroke-width="2"/><rect x="437.62499999999994" y="124.4090909090909" width="12" height="12" fill="#fff" stroke="#d1343f" stroke-width="2"/><rect x="349.4375" y="107.02272727272728" width="12" height="12" fill="#fff" stroke="#d1343f" stroke-width="2"/><rect x="121.00000000000001" y="57.18181818181819" width="12" height="12" fill="#fff" stroke="#d1343f" stroke-width="2"/><line x1="794" y1="126.72727272727275" x2="884.6" y2="235.9" stroke="#1f6fb2" stroke-width="1.6"/><path d="M-7,-5 L5,0 L-7,5 Z" fill="#1f6fb2" transform="translate(884.6,235.9) rotate(47.5)"/><text x="790" y="132.72727272727275" font-size="20" font-weight="bold" fill="#1f6fb2" text-anchor="end">نانوکامپوزیت</text><line x1="645.25" y1="439.6818181818182" x2="881.4" y2="512.3" stroke="#d1343f" stroke-width="1.6"/><path d="M-7,-5 L5,0 L-7,5 Z" fill="#d1343f" transform="translate(881.4,512.3) rotate(15.5)"/><text x="641.25" y="445.6818181818182" font-size="20" font-weight="bold" fill="#d1343f" text-anchor="end">نشاسته خالص</text><rect x="122" y="458" width="250" height="78" fill="#fff" stroke="#c9ced4" stroke-width="1"/><line x1="314" x2="360" y1="480" y2="480" stroke="#333" stroke-width="2.6"/><circle cx="337" cy="480" r="6.5" fill="#333" stroke="#333" stroke-width="2"/><text x="300" y="486" font-size="17" fill="#222" text-anchor="end">مسیر رفت (جذب)</text><line x1="314" x2="360" y1="514" y2="514" stroke="#333" stroke-width="2.6" stroke-dasharray="8,6"/><circle cx="337" cy="514" r="6.5" fill="#fff" stroke="#333" stroke-width="2"/><text x="300" y="520" font-size="17" fill="#222" text-anchor="end">مسیر برگشت (واجذب)</text></svg>